<svg width="30" height="30" viewBox="0 0 30 30" fill="none" xmlns="http://www.w3.org/2000/svg">
<g clip-path="url(#clip0_2012_20)">
<path d="M15 0C6.71531 0 0 6.71625 0 15C0 23.2838 6.71531 30 15 30C23.2838 30 30 23.2838 30 15C30 6.71625 23.2847 0 15 0ZM15.1622 23.0588C10.71 23.0588 7.10344 19.4522 7.10344 15C7.10344 10.5478 10.71 6.94125 15.1622 6.94125C17.3381 6.94125 19.1569 7.74281 20.5509 9.04125L18.2794 11.3128V11.3081C17.4337 10.5019 16.3603 10.0894 15.1622 10.0894C12.5034 10.0894 10.3425 12.3356 10.3425 14.9944C10.3425 17.6531 12.5034 19.905 15.1622 19.905C17.5744 19.905 19.2169 18.525 19.5544 16.6312H15.1622V13.4878H22.7419C22.8457 14.0459 22.8978 14.6124 22.8975 15.18C22.8975 19.785 19.815 23.0588 15.1622 23.0588Z" fill="black"/>
</g>
<defs>
<clipPath id="clip0_2012_20">
<rect width="30" height="30" fill="white"/>
</clipPath>
</defs>
</svg>
